<svg width="106" height="28" viewBox="0 0 106 28" fill="none" xmlns="http://www.w3.org/2000/svg">
<path d="M25.7247 27.3233L25.7244 27.3264L25.7327 27.3223L25.7247 27.3233Z" fill="#F85712"/>
<path fill-rule="evenodd" clip-rule="evenodd" d="M25.8953 24.1449C25.8786 25.1342 25.8287 26.2004 25.7247 27.3233C22.3304 27.7569 18.5204 28 14.7479 28C10.9724 28 7.42186 27.7728 4.12557 27.367C4.01722 26.2267 3.96305 25.1432 3.95055 24.1409C3.40239 24.0811 2.85538 24.0202 2.30892 23.9593L2.30648 23.9591C1.81539 23.9044 1.3241 23.8497 0.833449 23.7959C0.28754 20.647 0 17.5061 0 14C0 10.4939 0.312544 7.08116 0.900125 3.81043C1.31904 3.76468 1.73888 3.71804 2.15921 3.67134C2.63367 3.61863 3.10875 3.56584 3.58383 3.5142C3.59633 2.62551 3.63801 1.68 3.72135 0.681739C7.13016 0.243478 10.9515 0 14.7395 0C18.5276 0 22.0864 0.227246 25.3952 0.637101C25.4827 1.64754 25.5244 2.61333 25.5369 3.5142L28.9582 3.89565C29.5374 7.14203 29.8458 10.64 29.8458 14.0041C29.8458 17.3681 29.5541 20.647 29.0124 23.8C28.4632 23.8599 27.9151 23.9209 27.3676 23.9819C26.8768 24.0365 26.3856 24.0912 25.8953 24.1449ZM7.42915 21.5062C7.09367 19.3934 6.84699 16.8974 6.85192 14.0947C6.85686 11.3974 7.10354 8.98282 7.42915 6.92753C9.55554 6.62092 12.0273 6.39574 14.7851 6.38616C17.6664 6.37658 20.2417 6.60654 22.4372 6.92753C22.6525 8.32939 22.8266 9.88504 22.9186 11.5762H19.2266C19.1786 11.0961 19.1197 10.6404 19.0537 10.211C17.8462 10.0345 16.4298 9.90799 14.8451 9.91326C13.3283 9.91853 11.9688 10.0424 10.7993 10.211C10.6202 11.3414 10.4846 12.6695 10.4818 14.1529C10.4791 15.6944 10.6148 17.0672 10.7993 18.2293C11.9607 18.4032 13.3229 18.5297 14.8451 18.5349C16.4352 18.5402 17.8516 18.4084 19.0537 18.2293C19.1609 17.5229 19.2506 16.7429 19.3041 15.8989H14.6196V12.755L22.9683 12.7552C22.9808 13.172 22.9881 13.5962 22.9897 14.0276C22.9996 16.8399 22.7628 19.3599 22.4372 21.5062C20.2516 21.832 17.6762 22.0715 14.7851 22.0619C12.0174 22.0523 9.54073 21.8224 7.42915 21.5062Z" fill="#F85712"/>
<path d="M105.78 8.37724V10.0661H102.038V19.9726H100.184V10.0661H96.4597V8.37724H105.78Z" fill="#F85712"/>
<path fill-rule="evenodd" clip-rule="evenodd" d="M96.2386 10.0311V10.2835H99.9631V20.1901H102.258V10.2835H106V8.15945H96.2386V8.37708H96.3511V10.0311H96.2386ZM102.038 10.0661H105.78V8.37724H96.4597V10.0661H100.184V19.9726H102.038V10.0661Z" fill="#F85712"/>
<path d="M96.3511 8.37708H96.2386V10.0311H96.3511V8.37708Z" fill="#F85712"/>
<path d="M89.0587 18.3186H95.1838V19.9726H87.2052V8.37724H95.0073V10.0312H89.0587V13.1825H94.6543V14.8365H89.0587V18.3186Z" fill="#F85712"/>
<path fill-rule="evenodd" clip-rule="evenodd" d="M89.0587 18.3186V14.8365H94.6543V13.1825H89.0587V10.0312H95.0073V8.37724H87.2052V19.9726H95.1838V18.3186H89.0587Z" fill="#F85712"/>
<path fill-rule="evenodd" clip-rule="evenodd" d="M95.2281 10.2487V8.15945H86.9847V20.1901H95.4046V18.1008H89.2795V15.054H94.8751V12.9647H89.2795V10.2487H95.2281ZM95.1838 18.3186H89.0587V14.8365H94.6543V13.1825H89.0587V10.0312H95.0073V8.37724H87.2052V19.9726H95.1838V18.3186Z" fill="#F85712"/>
<path d="M83.7704 8.37725H85.5356V19.9727H83.7528L77.6806 11.2326L77.7512 12.5035V19.9727H75.986V8.37725H77.7512L83.8234 17.0129L83.7704 15.8115V8.37725Z" fill="#F85712"/>
<path fill-rule="evenodd" clip-rule="evenodd" d="M83.7704 8.37725V15.8115L83.8234 17.0129L77.7512 8.37725H75.986V19.9727H77.7512V12.5035L77.6806 11.2326L83.7528 19.9727H85.5356V8.37725H83.7704ZM77.9435 11.9966L83.636 20.1901H85.7558V8.15946H83.5493V15.8161L83.5693 16.2702L77.8662 8.15946H75.7649V20.1901H77.9714V12.4974L77.9435 11.9966Z" fill="#F85712"/>
<path d="M67.9474 8.37725H69.7302V15.1499C69.7302 18.3883 67.7885 20.199 64.9642 20.199C62.034 20.199 60.11 18.4753 60.11 15.2718V8.37725H61.9634V15.1848C61.9634 17.5004 63.199 18.4928 65.0701 18.4928C66.7647 18.4928 67.9474 17.5352 67.9474 15.1151V8.37725Z" fill="#F85712"/>
<path fill-rule="evenodd" clip-rule="evenodd" d="M67.9474 8.37725V15.1151C67.9474 17.5352 66.7647 18.4928 65.0701 18.4928C63.199 18.4928 61.9634 17.5004 61.9634 15.1848V8.37725H60.11V15.2718C60.11 18.4753 62.034 20.199 64.9642 20.199C67.7885 20.199 69.7302 18.3883 69.7302 15.1499V8.37725H67.9474ZM67.7269 8.15946H69.951V15.1498C69.951 16.8119 69.452 18.133 68.5653 19.0398C67.6781 19.9471 66.4253 20.4165 64.9644 20.4165C63.4557 20.4165 62.1808 19.972 61.2828 19.0909C60.3844 18.2093 59.8895 16.9166 59.8895 15.2717V8.15946H62.1842V15.1846C62.1842 16.3059 62.483 17.0694 62.9716 17.5534C63.4603 18.0374 64.1726 18.275 65.0703 18.275C65.8758 18.275 66.5283 18.0484 66.9823 17.5636C67.4389 17.0761 67.7269 16.2932 67.7269 15.115V8.15946Z" fill="#F85712"/>
<path d="M54.6167 8.37724C57.0703 8.37724 58.5354 9.61338 58.5354 11.8942C58.5354 14.2446 56.7702 15.62 54.4402 15.62H51.1922V19.9726H49.3388V8.37724H54.6167ZM56.6466 11.9812C56.6643 10.7102 55.7287 10.0486 54.2813 10.0486H51.1922V13.9312H54.2813C55.7287 13.9312 56.629 13.2348 56.6466 11.9812Z" fill="#F85712"/>
<path fill-rule="evenodd" clip-rule="evenodd" d="M58.5354 11.8942C58.5354 9.61338 57.0703 8.37724 54.6167 8.37724H49.3388V19.9726H51.1922V15.62H54.4402C56.7702 15.62 58.5354 14.2446 58.5354 11.8942ZM51.4131 15.8375H54.4403C55.6482 15.8375 56.7273 15.4808 57.5077 14.8015C58.2912 14.1194 58.7562 13.1268 58.7562 11.894C58.7562 10.7059 58.3729 9.76209 57.6434 9.11809C56.9177 8.47736 55.8788 8.15945 54.6168 8.15945H49.1183V20.1901H51.4131V15.8375ZM54.2813 10.0486C55.7287 10.0486 56.6643 10.7102 56.6466 11.9812C56.629 13.2348 55.7287 13.9312 54.2813 13.9312H51.1922V10.0486H54.2813ZM51.4131 10.2661V13.7134H54.2815C54.9721 13.7134 55.5035 13.5471 55.8602 13.258C56.2114 12.9734 56.4181 12.55 56.4262 11.978C56.4342 11.4012 56.2288 10.9856 55.876 10.7084C55.5156 10.4251 54.975 10.2661 54.2815 10.2661H51.4131Z" fill="#F85712"/>
<path d="M42.9468 13.8966H47.8364V19.9729H46.2477L46.1418 18.5974C45.4004 19.6769 44.2884 20.1992 42.6644 20.1992C39.646 20.1992 37.5277 18.1622 37.5277 14.2796C37.5277 10.5364 39.7519 8.15112 43.0174 8.15112C45.5063 8.15112 47.095 9.33504 47.5892 11.3372L45.877 11.7899C45.4534 10.3623 44.3413 9.78771 43.0174 9.78771C40.8816 9.78771 39.4341 11.3198 39.4341 14.1926C39.4341 17.1001 40.7757 18.4756 42.8409 18.4756C44.8885 18.4756 46.0535 17.4657 46.0535 15.5158H42.9468V13.8966Z" fill="#F85712"/>
<path fill-rule="evenodd" clip-rule="evenodd" d="M42.7263 13.6788H48.0572V20.1903H46.0434L45.9649 19.1718C45.1875 20.0146 44.1071 20.4167 42.6646 20.4167C41.1029 20.4167 39.7553 19.8882 38.8003 18.8407C37.8474 17.7957 37.3073 16.2585 37.3073 14.2795C37.3073 12.3659 37.8761 10.7785 38.8836 9.66647C39.8931 8.55232 41.3273 7.93333 43.0176 7.93333C44.2971 7.93333 45.3646 8.23784 46.1803 8.81651C46.9979 9.39646 47.5457 10.2399 47.8038 11.2856L47.8548 11.4922L45.726 12.055L45.6654 11.8509C45.4668 11.1817 45.1123 10.7261 44.6637 10.4351C44.2121 10.1421 43.6484 10.0052 43.0176 10.0052C42.007 10.0052 41.1763 10.3654 40.5943 11.0523C40.0084 11.7437 39.6549 12.7897 39.6549 14.1924C39.6549 15.6169 39.984 16.631 40.5332 17.2855C41.0773 17.9338 41.8613 18.2578 42.8411 18.2578C43.8309 18.2578 44.5728 18.0137 45.0659 17.5665C45.517 17.1575 45.7876 16.5533 45.8278 15.7332H42.7263V13.6788ZM46.0535 15.5158C46.0535 15.5897 46.052 15.662 46.0487 15.7332C45.9641 17.5407 44.8109 18.4756 42.8409 18.4756C40.7757 18.4756 39.4341 17.1001 39.4341 14.1926C39.4341 11.3198 40.8816 9.78771 43.0174 9.78771C44.3413 9.78771 45.4534 10.3623 45.877 11.7899L47.5892 11.3372C47.095 9.33504 45.5063 8.15112 43.0174 8.15112C39.7519 8.15112 37.5277 10.5364 37.5277 14.2796C37.5277 18.1622 39.646 20.1992 42.6644 20.1992C44.148 20.1992 45.2045 19.7631 45.9413 18.8648C46.011 18.7797 46.0777 18.6907 46.1418 18.5974L46.2477 19.9729H47.8364V13.8966H42.9468V15.5158H46.0535Z" fill="#F85712"/>
<path d="M73.9039 18.7833C73.9039 19.5565 73.2676 20.1833 72.4827 20.1833C71.6978 20.1833 71.0615 19.5565 71.0615 18.7833C71.0615 18.0101 71.6978 17.3833 72.4827 17.3833C73.2676 17.3833 73.9039 18.0101 73.9039 18.7833Z" fill="#F85712"/>
</svg>
